<svg width="45" height="25" viewBox="0 0 45 25" fill="none" xmlns="http://www.w3.org/2000/svg">
<rect x="0.5" y="0.5" width="44" height="24" rx="4.5" fill="white"/>
<rect x="0.5" y="0.5" width="44" height="24" rx="4.5" stroke="#211E1E"/>
<path d="M20.544 7.076H21.528V17.948H20.544V7.076ZM17.688 11.108H20.832V11.924H17.688V11.108ZM13.032 7.928H14.028V10.748H17.04V7.928H18.012V15.212H13.032V7.928ZM14.028 11.54V14.396H17.04V11.54H14.028ZM23.6271 13.088H33.4431V13.892H23.6271V13.088ZM24.8991 16.88H32.4111V17.696H24.8991V16.88ZM24.8991 14.684H25.8831V17.18H24.8991V14.684ZM24.9231 11.3H32.2911V12.08H24.9231V11.3ZM24.9231 7.484H32.2311V8.264H25.9191V11.6H24.9231V7.484ZM25.6191 9.38H31.9431V10.148H25.6191V9.38Z" fill="black"/>
</svg>
