<svg width="182" height="182" viewBox="0 0 182 182" fill="none" xmlns="http://www.w3.org/2000/svg">
<path d="M92.0566 21.1098L93.2723 6.61069L94.8376 6.74194L94.6971 8.41703L94.8893 8.43315C95.0237 8.26006 95.208 8.04046 95.4424 7.77435C95.6816 7.50406 96.0098 7.27347 96.4268 7.0826C96.8487 6.88753 97.4029 6.81878 98.0894 6.87635C98.9773 6.9508 99.7413 7.2384 100.381 7.73914C101.022 8.23988 101.497 8.91351 101.809 9.76002C102.121 10.6065 102.23 11.5836 102.137 12.6911C102.043 13.8079 101.772 14.7599 101.324 15.5473C100.876 16.3301 100.296 16.9176 99.5859 17.3097C98.8759 17.6972 98.0815 17.8541 97.2028 17.7804C96.5254 17.7237 95.9925 17.566 95.6039 17.3076C95.2158 17.0446 94.924 16.7598 94.7285 16.453C94.5333 16.1417 94.3843 15.8849 94.2815 15.6827L94.1442 15.6712L93.6767 21.2457L92.0566 21.1098ZM94.4229 12.0167C94.3562 12.813 94.414 13.5253 94.5963 14.1536C94.7791 14.7773 95.0803 15.2796 95.5001 15.6604C95.9202 16.0367 96.4552 16.2521 97.1051 16.3066C97.7825 16.3634 98.3627 16.2323 98.8457 15.9133C99.3337 15.5901 99.7176 15.1338 99.9975 14.5443C100.282 13.9506 100.456 13.2784 100.519 12.5278C100.581 11.7864 100.523 11.1086 100.344 10.4944C100.17 9.87608 99.8688 9.3738 99.4403 8.98759C99.0167 8.59718 98.4617 8.3732 97.7752 8.31563C97.1161 8.26037 96.5483 8.38099 96.0718 8.67748C95.5956 8.9694 95.2182 9.40325 94.9395 9.97903C94.6611 10.5502 94.489 11.2295 94.4229 12.0167Z" fill="white"/>
<path d="M108.7 19.7416C107.775 19.5058 107.018 19.0786 106.432 18.46C105.85 17.8425 105.464 17.0877 105.274 16.1958C105.089 15.3049 105.131 14.3298 105.401 13.2706C105.673 12.2024 106.104 11.3193 106.694 10.6213C107.289 9.92438 107.989 9.44404 108.796 9.18029C109.607 8.91766 110.475 8.90425 111.401 9.14007C112.327 9.37588 113.08 9.80252 113.662 10.42C114.249 11.0386 114.634 11.7956 114.819 12.6909C115.007 13.5873 114.966 14.5696 114.694 15.6378C114.424 16.697 113.992 17.5729 113.399 18.2653C112.81 18.9589 112.11 19.437 111.299 19.6997C110.492 19.9634 109.626 19.9774 108.7 19.7416ZM109.061 18.3263C109.764 18.5054 110.389 18.4725 110.934 18.2277C111.48 17.9828 111.937 17.5944 112.305 17.0624C112.672 16.5305 112.944 15.9218 113.118 15.2364C113.293 14.551 113.346 13.8846 113.279 13.2371C113.212 12.5896 112.998 12.0256 112.637 11.545C112.276 11.0644 111.743 10.7345 111.04 10.5554C110.337 10.3763 109.712 10.4114 109.165 10.6607C108.618 10.91 108.16 11.3028 107.791 11.8392C107.422 12.3756 107.151 12.9865 106.976 13.6719C106.802 14.3573 106.748 15.0215 106.817 15.6646C106.885 16.3076 107.101 16.8672 107.463 17.3434C107.825 17.8195 108.358 18.1471 109.061 18.3263Z" fill="white"/>
<path d="M116.08 21.7682L120.063 11.9646L121.518 12.5558L120.917 14.0366L121.019 14.0781C121.395 13.6656 121.878 13.4034 122.469 13.2914C123.06 13.1795 123.649 13.2428 124.236 13.4814C124.346 13.5263 124.484 13.5846 124.648 13.6563C124.812 13.728 124.935 13.7854 125.017 13.8284L124.394 15.3603C124.349 15.3267 124.239 15.2601 124.067 15.1602C123.9 15.0578 123.717 14.966 123.517 14.8847C123.04 14.6911 122.574 14.6182 122.119 14.6661C121.669 14.7114 121.265 14.8645 120.906 15.1252C120.553 15.3834 120.287 15.7338 120.107 16.1763L117.586 22.3802L116.08 21.7682Z" fill="white"/>
<path d="M132.262 17.6591L131.623 18.8802L126.763 16.3398L127.402 15.1188L132.262 17.6591ZM129.992 13.6124L131.433 14.3655L126.761 23.3039C126.548 23.7109 126.448 24.047 126.46 24.3122C126.477 24.5755 126.562 24.7907 126.713 24.9577C126.87 25.1229 127.055 25.2607 127.266 25.3714C127.425 25.4543 127.56 25.5143 127.67 25.5512C127.782 25.584 127.872 25.6103 127.94 25.63L127.556 27.0775C127.439 27.0631 127.284 27.0285 127.09 26.9736C126.893 26.9228 126.661 26.8272 126.392 26.6868C125.985 26.474 125.632 26.178 125.333 25.7988C125.037 25.4216 124.855 24.9869 124.786 24.4947C124.721 24.0046 124.831 23.4869 125.116 22.9414L129.992 13.6124Z" fill="white"/>
<path d="M138.298 21.4689L137.555 22.6291L132.751 19.552L133.495 18.3918L138.298 21.4689ZM129.225 28.2236L135.721 18.0836C136.048 17.5732 136.441 17.2246 136.898 17.0379C137.356 16.8512 137.831 16.7954 138.323 16.8705C138.815 16.9456 139.273 17.1194 139.699 17.3919C140.035 17.6075 140.293 17.8105 140.471 18.0009C140.649 18.1913 140.775 18.3431 140.85 18.4564L139.697 19.3871C139.642 19.3193 139.564 19.2284 139.463 19.1143C139.365 19.0027 139.218 18.8837 139.02 18.7573C138.568 18.4675 138.168 18.3722 137.821 18.4715C137.477 18.5733 137.165 18.8447 136.882 19.2855L130.594 29.1006L129.225 28.2236Z" fill="white"/>
<path d="M137.598 34.5621C136.866 33.9481 136.37 33.2352 136.11 32.4234C135.854 31.6146 135.833 30.7671 136.049 29.881C136.268 28.9979 136.729 28.1377 137.432 27.3003C138.14 26.4559 138.912 25.8472 139.746 25.4742C140.585 25.1042 141.424 24.9753 142.265 25.0875C143.11 25.2026 143.898 25.5672 144.63 26.1812C145.362 26.7953 145.856 27.5067 146.113 28.3155C146.373 29.1273 146.392 29.9765 146.169 30.8632C145.951 31.7527 145.487 32.6197 144.778 33.4642C144.076 34.3015 143.307 34.9035 142.472 35.27C141.64 35.6394 140.802 35.7666 139.958 35.6514C139.116 35.5393 138.33 35.1761 137.598 34.5621ZM138.537 33.4433C139.093 33.9097 139.67 34.151 140.268 34.1671C140.866 34.1832 141.446 34.0314 142.008 33.7116C142.57 33.3918 143.078 32.961 143.533 32.4191C143.988 31.8773 144.325 31.3001 144.545 30.6875C144.765 30.0749 144.817 29.4738 144.7 28.8842C144.583 28.2945 144.247 27.7665 143.691 27.3001C143.135 26.8337 142.557 26.5942 141.956 26.5816C141.355 26.569 140.772 26.7243 140.207 27.0476C139.642 27.3709 139.132 27.8035 138.677 28.3453C138.223 28.8872 137.887 29.4626 137.67 30.0717C137.452 30.6808 137.404 31.2784 137.523 31.8645C137.643 32.4506 137.981 32.9768 138.537 33.4433Z" fill="white"/>
<path d="M143.319 39.5757L151.001 32.2989L152.119 33.4793L144.437 40.7561L143.319 39.5757ZM152.85 31.6863C152.632 31.4562 152.523 31.1836 152.521 30.8684C152.523 30.5566 152.634 30.2964 152.854 30.088C153.074 29.8795 153.34 29.7828 153.652 29.7977C153.966 29.816 154.233 29.9402 154.451 30.1702C154.669 30.4003 154.776 30.6713 154.775 30.9831C154.776 31.2983 154.666 31.5601 154.446 31.7685C154.226 31.977 153.959 32.0721 153.644 32.0538C153.333 32.0388 153.068 31.9163 152.85 31.6863Z" fill="white"/>
<path d="M158.483 35.4187L147.623 44.4261L146.585 43.1747L157.445 34.1673L158.483 35.4187Z" fill="white"/>
<path d="M151.947 50.736C151.426 49.9357 151.158 49.1093 151.146 48.257C151.135 47.4084 151.362 46.5917 151.827 45.8067C152.293 45.0256 152.985 44.3366 153.9 43.7398C154.824 43.1379 155.739 42.7799 156.646 42.6658C157.555 42.5555 158.396 42.6764 159.168 43.0283C159.943 43.3842 160.591 43.9623 161.113 44.7626C161.634 45.5629 161.9 46.3873 161.91 47.2358C161.923 48.0882 161.694 48.9062 161.224 49.6898C160.756 50.4773 160.06 51.172 159.136 51.7739C158.221 52.3707 157.31 52.723 156.404 52.8308C155.501 52.9424 154.662 52.8203 153.888 52.4645C153.116 52.1125 152.469 51.5363 151.947 50.736ZM153.171 49.9385C153.567 50.5465 154.049 50.9451 154.616 51.1345C155.184 51.3238 155.783 51.3472 156.414 51.2048C157.044 51.0623 157.656 50.7979 158.249 50.4118C158.841 50.0256 159.332 49.5714 159.721 49.0494C160.11 48.5273 160.334 47.9672 160.394 47.3691C160.453 46.771 160.285 46.168 159.889 45.56C159.493 44.9521 159.009 44.5547 158.438 44.3679C157.866 44.181 157.263 44.1601 156.629 44.3051C155.994 44.4501 155.381 44.7157 154.788 45.1019C154.195 45.4881 153.707 45.9409 153.322 46.4605C152.937 46.9801 152.716 47.5376 152.66 48.1332C152.604 48.7288 152.775 49.3306 153.171 49.9385Z" fill="white"/>
<path d="M172.035 58.5398L158.958 63.8365L158.348 62.3296L171.425 57.0328L172.035 58.5398Z" fill="white"/>
<path d="M160.068 66.8521L170.118 63.5391L170.627 65.0832L160.577 68.3962L160.068 66.8521ZM172.051 63.772C171.952 63.4711 171.969 63.1777 172.102 62.8921C172.237 62.6107 172.448 62.4226 172.736 62.3277C173.024 62.2328 173.305 62.2585 173.581 62.4046C173.858 62.5551 174.046 62.7809 174.145 63.0818C174.244 63.3828 174.227 63.6739 174.092 63.9553C173.959 64.2409 173.748 64.4312 173.461 64.5261C173.173 64.621 172.89 64.5932 172.613 64.4427C172.338 64.2966 172.151 64.073 172.051 63.772Z" fill="white"/>
<path d="M168.211 71.942L161.976 73.226L161.648 71.6335L172.012 69.4992L172.329 71.0376L170.71 71.3711L170.738 71.5061C171.314 71.6406 171.813 71.9224 172.234 72.3515C172.66 72.7796 172.953 73.385 173.114 74.1677C173.259 74.8695 173.241 75.5132 173.062 76.0988C172.887 76.6834 172.539 77.1817 172.019 77.5936C171.504 78.0046 170.805 78.3009 169.923 78.4824L163.338 79.8386L163.01 78.2462L169.487 76.9122C170.302 76.7446 170.892 76.4025 171.26 75.8861C171.631 75.3688 171.741 74.7412 171.589 74.0035C171.485 73.4952 171.281 73.0635 170.978 72.7086C170.676 72.3581 170.29 72.1117 169.82 71.9693C169.35 71.827 168.814 71.8179 168.211 71.942Z" fill="white"/>
<path d="M167.669 84.58L169.677 84.4558L169.693 84.7861L174.622 89.184L174.719 91.1933L169.5 86.5059L169.493 86.3683L167.669 84.58ZM163.743 83.2514L177.836 82.5737L177.914 84.1977L163.821 84.8754L163.743 83.2514ZM164.066 89.9675L169.097 85.5873L170.281 86.689L164.165 92.0319L164.066 89.9675Z" fill="white"/>
<path d="M166.869 106.22L166.482 108.054L164.136 109.164L163.511 109.455L159.981 111.105L160.368 109.271L162.708 108.188L163.3 107.918L166.869 106.22ZM168.059 113.399C166.603 113.092 165.4 112.564 164.45 111.815C163.5 111.065 162.835 110.171 162.453 109.133C162.071 108.095 162.004 106.988 162.252 105.81C162.5 104.633 163.009 103.646 163.777 102.851C164.546 102.055 165.516 101.506 166.687 101.204C167.858 100.902 169.172 100.904 170.628 101.211C172.084 101.518 173.287 102.046 174.237 102.796C175.187 103.545 175.853 104.439 176.235 105.477C176.617 106.515 176.683 107.623 176.435 108.8C176.187 109.978 175.679 110.964 174.91 111.76C174.142 112.555 173.172 113.104 172 113.406C170.829 113.708 169.515 113.706 168.059 113.399ZM168.4 111.781C169.595 112.033 170.646 112.046 171.553 111.819C172.459 111.597 173.195 111.191 173.76 110.602C174.325 110.017 174.695 109.306 174.871 108.471C175.047 107.635 174.996 106.833 174.717 106.065C174.436 105.302 173.927 104.634 173.189 104.06C172.45 103.492 171.483 103.081 170.287 102.829C169.092 102.577 168.041 102.562 167.135 102.784C166.229 103.011 165.493 103.417 164.929 104.002C164.363 104.591 163.992 105.304 163.816 106.14C163.64 106.976 163.692 107.775 163.972 108.538C164.251 109.306 164.761 109.974 165.5 110.543C166.238 111.117 167.205 111.529 168.4 111.781Z" fill="white"/>
<path d="M161.461 122.772L167.235 125.177L166.61 126.678L156.842 122.609L157.467 121.108L159.12 121.797L159.163 121.695C158.762 121.259 158.489 120.728 158.342 120.099C158.2 119.473 158.283 118.791 158.59 118.053C158.844 117.443 159.204 116.956 159.669 116.592C160.138 116.23 160.701 116.027 161.356 115.982C162.016 115.938 162.762 116.089 163.593 116.436L169.799 119.021L169.174 120.522L163.069 117.979C162.357 117.682 161.706 117.645 161.116 117.867C160.524 118.093 160.098 118.517 159.839 119.141C159.683 119.514 159.621 119.933 159.651 120.398C159.679 120.868 159.836 121.316 160.12 121.743C160.403 122.174 160.85 122.517 161.461 122.772Z" fill="white"/>
<path d="M155.155 125.664L164.392 130.825L163.6 132.244L154.362 127.083L155.155 125.664ZM165.529 132.407C165.683 132.13 165.911 131.944 166.211 131.849C166.51 131.758 166.791 131.786 167.056 131.934C167.32 132.082 167.492 132.307 167.571 132.608C167.647 132.914 167.608 133.205 167.454 133.482C167.299 133.759 167.073 133.943 166.774 134.034C166.474 134.129 166.191 134.103 165.927 133.955C165.662 133.807 165.492 133.58 165.415 133.274C165.336 132.973 165.374 132.683 165.529 132.407Z" fill="white"/>
<path d="M150.048 133.371C150.625 132.564 151.312 132.005 152.11 131.695C152.908 131.384 153.753 131.311 154.646 131.475C155.54 131.639 156.416 132.029 157.275 132.643C158.15 133.268 158.807 133.98 159.246 134.779C159.686 135.585 159.888 136.412 159.851 137.261C159.816 138.116 159.52 138.933 158.965 139.71C158.532 140.315 158.03 140.781 157.459 141.106C156.888 141.432 156.289 141.605 155.664 141.627C155.039 141.649 154.431 141.505 153.839 141.195L154.784 139.872C155.249 140.052 155.757 140.076 156.308 139.945C156.86 139.82 157.344 139.466 157.761 138.883C158.129 138.367 158.318 137.819 158.326 137.238C158.336 136.664 158.176 136.095 157.845 135.531C157.515 134.973 157.025 134.462 156.375 133.998C155.71 133.522 155.056 133.213 154.413 133.07C153.768 132.93 153.171 132.955 152.623 133.145C152.073 133.339 151.61 133.697 151.237 134.22C150.991 134.564 150.828 134.919 150.747 135.285C150.666 135.65 150.669 136.01 150.754 136.365C150.839 136.72 151.009 137.05 151.265 137.357L150.319 138.679C149.864 138.241 149.539 137.729 149.343 137.143C149.147 136.563 149.102 135.947 149.208 135.294C149.314 134.647 149.594 134.006 150.048 133.371Z" fill="white"/>
<path d="M147.54 142.951L148.999 144.337L148.768 144.573L148.908 151.178L147.504 152.618L147.378 145.604L147.474 145.505L147.54 142.951ZM145.837 139.173L155.936 149.025L154.801 150.189L144.702 140.336L145.837 139.173ZM141.142 143.985L147.776 144.683L147.776 146.3L139.698 145.465L141.142 143.985Z" fill="white"/>
<path d="M131.921 163.953L129.508 152.932L130.9 152.04L139.903 158.839L138.418 159.79L131.41 154.266L131.317 154.325L133.406 163.001L131.921 163.953Z" fill="white"/>
<path d="M123.908 156.105L128.603 165.588L127.146 166.31L122.451 156.826L123.908 156.105ZM128.644 167.536C128.928 167.395 129.221 167.371 129.523 167.462C129.82 167.556 130.036 167.738 130.171 168.01C130.305 168.282 130.319 168.564 130.214 168.857C130.104 169.153 129.907 169.371 129.623 169.511C129.339 169.652 129.048 169.675 128.75 169.582C128.449 169.49 128.231 169.309 128.096 169.037C127.962 168.765 127.95 168.482 128.06 168.187C128.165 167.893 128.36 167.676 128.644 167.536Z" fill="white"/>
<path d="M115.202 159.615C116.16 159.267 117.064 159.178 117.913 159.348C118.759 159.524 119.508 159.926 120.161 160.553C120.812 161.187 121.323 162.013 121.693 163.031C122.063 164.05 122.204 165.015 122.115 165.927C122.024 166.845 121.723 167.644 121.212 168.323C120.699 169.008 119.994 169.514 119.096 169.84C118.578 170.028 118.035 170.128 117.467 170.139C116.899 170.15 116.338 170.037 115.782 169.799C115.228 169.565 114.713 169.176 114.236 168.631C113.759 168.086 113.352 167.349 113.015 166.421L112.779 165.774L120.445 162.987L120.925 164.307L114.813 166.53C115.017 167.091 115.312 167.551 115.696 167.909C116.076 168.27 116.518 168.503 117.021 168.608C117.519 168.715 118.044 168.668 118.597 168.467C119.205 168.246 119.677 167.904 120.012 167.44C120.344 166.982 120.541 166.47 120.605 165.905C120.668 165.339 120.6 164.783 120.4 164.234L120.08 163.354C119.807 162.603 119.446 162.013 118.997 161.585C118.546 161.163 118.037 160.901 117.472 160.798C116.909 160.7 116.318 160.763 115.701 160.988C115.3 161.134 114.958 161.322 114.675 161.551C114.389 161.787 114.169 162.063 114.015 162.378C113.862 162.697 113.784 163.053 113.78 163.445L112.153 163.568C112.126 163.011 112.228 162.475 112.456 161.962C112.687 161.453 113.033 160.995 113.496 160.587C113.96 160.184 114.529 159.86 115.202 159.615Z" fill="white"/>
<path d="M106.282 162.507L111.135 172.447L109.448 172.717L105.911 165.077L105.802 165.095L104.849 173.451L103.134 173.725L99.6566 166.104L99.5478 166.122L98.5628 174.456L96.8756 174.725L98.3903 163.767L99.9686 163.515L103.537 171.177L103.7 171.151L104.703 162.759L106.282 162.507Z" fill="white"/>
<path d="M87.08 160.154L85.4307 174.61L83.8701 174.432L84.0607 172.762L83.869 172.74C83.7295 172.909 83.5387 173.123 83.2965 173.382C83.0493 173.645 82.7144 173.866 82.2919 174.044C81.8643 174.226 81.3082 174.279 80.6238 174.2C79.7385 174.099 78.9834 173.789 78.3586 173.269C77.7337 172.75 77.2783 172.062 76.9922 171.207C76.7061 170.351 76.626 169.371 76.752 168.267C76.8791 167.154 77.1785 166.21 77.6505 165.437C78.1219 164.668 78.7185 164.098 79.4403 163.727C80.1616 163.361 80.9603 163.228 81.8364 163.328C82.5118 163.405 83.0398 163.578 83.4204 163.848C83.8005 164.123 84.0836 164.416 84.2699 164.729C84.4556 165.046 84.5968 165.307 84.6936 165.512L84.8305 165.528L85.4646 159.97L87.08 160.154ZM84.4425 169.172C84.5331 168.378 84.4966 167.664 84.3331 167.031C84.1691 166.402 83.883 165.891 83.4749 165.498C83.0662 165.109 82.5379 164.878 81.8899 164.804C81.2146 164.727 80.6307 164.84 80.1383 165.145C79.6409 165.453 79.2435 165.898 78.9461 166.479C78.6436 167.064 78.4497 167.73 78.3643 168.479C78.2799 169.218 78.318 169.897 78.4785 170.516C78.6339 171.14 78.92 171.651 79.3367 172.05C79.7484 172.453 80.2965 172.693 80.981 172.771C81.6381 172.846 82.2092 172.743 82.6944 172.46C83.1791 172.183 83.5693 171.761 83.8652 171.193C84.1605 170.631 84.3529 169.957 84.4425 169.172Z" fill="#F4AC0F"/>
<path d="M70.3939 161.018C71.312 161.282 72.0548 161.732 72.6222 162.368C73.1852 163.003 73.5481 163.769 73.7107 164.666C73.869 165.563 73.7971 166.536 73.4952 167.586C73.1908 168.646 72.733 169.515 72.1219 170.195C71.5064 170.874 70.7915 171.332 69.9774 171.572C69.1588 171.809 68.2904 171.796 67.3722 171.533C66.4541 171.269 65.7135 170.819 65.1505 170.184C64.5831 169.548 64.2208 168.78 64.0639 167.879C63.9025 166.978 63.974 165.997 64.2785 164.938C64.5804 163.887 65.0385 163.025 65.6527 162.351C66.2625 161.675 66.9767 161.219 67.7954 160.981C68.6095 160.742 69.4757 160.754 70.3939 161.018ZM69.9905 162.422C69.293 162.221 68.6678 162.235 68.1148 162.463C67.5618 162.692 67.0935 163.066 66.7097 163.586C66.326 164.107 66.0364 164.707 65.8411 165.387C65.6457 166.067 65.5719 166.731 65.6194 167.38C65.667 168.03 65.8639 168.6 66.2101 169.091C66.5564 169.583 67.0782 169.928 67.7756 170.129C68.4731 170.329 69.0989 170.313 69.6532 170.081C70.2074 169.848 70.6771 169.469 71.0621 168.944C71.4471 168.42 71.7373 167.817 71.9326 167.137C72.128 166.458 72.2012 165.795 72.1524 165.15C72.1035 164.506 71.9053 163.94 71.5579 163.453C71.2104 162.966 70.6879 162.622 69.9905 162.422Z" fill="#F4AC0F"/>
<path d="M63.0902 158.772L58.813 168.451L57.3763 167.816L58.0223 166.355L57.9215 166.31C57.5334 166.711 57.0424 166.958 56.4485 167.052C55.8546 167.147 55.2678 167.065 54.6881 166.809C54.5788 166.761 54.4432 166.699 54.2813 166.622C54.1193 166.545 53.9981 166.484 53.9178 166.439L54.5862 164.926C54.631 164.961 54.7382 165.031 54.9077 165.136C55.0711 165.244 55.2516 165.341 55.449 165.428C55.9195 165.636 56.3832 165.723 56.8401 165.689C57.291 165.657 57.6997 165.517 58.0662 165.267C58.4266 165.019 58.7033 164.677 58.8964 164.24L61.6031 158.115L63.0902 158.772Z" fill="#F4AC0F"/>
<path d="M46.7907 162.391L47.4655 161.19L52.2467 163.875L51.5719 165.077L46.7907 162.391ZM48.9368 166.504L47.5193 165.708L52.4586 156.914C52.6835 156.514 52.7941 156.181 52.7904 155.916C52.7805 155.652 52.7026 155.434 52.5566 155.263C52.4044 155.093 52.2242 154.95 52.016 154.833C51.8598 154.745 51.7271 154.681 51.618 154.641C51.5067 154.605 51.4176 154.576 51.3508 154.554L51.7777 153.119C51.8941 153.136 52.0485 153.176 52.2409 153.236C52.4356 153.293 52.6651 153.396 52.9293 153.544C53.3298 153.769 53.6738 154.076 53.9615 154.464C54.2452 154.85 54.4143 155.29 54.4686 155.784C54.5189 156.275 54.3934 156.79 54.092 157.326L48.9368 166.504Z" fill="#F4AC0F"/>
<path d="M40.8787 158.407L41.6563 157.27L46.3653 160.489L45.5876 161.626L40.8787 158.407ZM50.1495 151.927L43.3529 161.868C43.0108 162.368 42.6081 162.705 42.1449 162.878C41.6818 163.051 41.2055 163.092 40.7161 163.003C40.2267 162.913 39.7735 162.725 39.3564 162.44C39.0265 162.215 38.7755 162.004 38.6033 161.808C38.431 161.613 38.3093 161.457 38.238 161.342L39.4179 160.446C39.4706 160.515 39.546 160.609 39.644 160.726C39.7382 160.84 39.8819 160.964 40.0753 161.096C40.5189 161.399 40.9157 161.506 41.2658 161.417C41.6121 161.326 41.933 161.064 42.2285 160.632L48.8073 151.009L50.1495 151.927Z" fill="#F4AC0F"/>
<path d="M41.9653 145.337C42.6784 145.973 43.1529 146.7 43.3887 147.52C43.621 148.336 43.6161 149.183 43.3739 150.063C43.1282 150.939 42.6418 151.785 41.9145 152.601C41.1811 153.424 40.3918 154.009 39.5465 154.357C38.6978 154.702 37.8547 154.806 37.0173 154.668C36.1765 154.528 35.3995 154.14 34.6863 153.504C33.9731 152.869 33.5004 152.143 33.268 151.327C33.0323 150.508 33.0387 149.658 33.2874 148.779C33.5327 147.896 34.022 147.043 34.7554 146.22C35.4827 145.404 36.2692 144.826 37.1148 144.484C37.9571 144.14 38.7986 144.038 39.6394 144.178C40.4768 144.315 41.2521 144.702 41.9653 145.337ZM40.9935 146.428C40.4518 145.945 39.8823 145.686 39.2851 145.653C38.6878 145.619 38.1035 145.753 37.5321 146.056C36.9608 146.359 36.4398 146.774 35.9692 147.302C35.4986 147.83 35.1441 148.397 34.9056 149.003C34.6672 149.609 34.5976 150.208 34.6967 150.801C34.7959 151.394 35.1163 151.931 35.6581 152.414C36.1998 152.897 36.7708 153.154 37.3711 153.184C37.9714 153.215 38.5588 153.077 39.1332 152.771C39.7076 152.464 40.2301 152.047 40.7007 151.519C41.1713 150.991 41.5243 150.426 41.7597 149.824C41.995 149.221 42.0616 148.625 41.9594 148.036C41.8572 147.447 41.5352 146.911 40.9935 146.428Z" fill="#F4AC0F"/>
<path d="M36.3976 140.156L28.5013 147.2L27.419 145.987L35.3153 138.943L36.3976 140.156ZM26.6349 147.757C26.8459 147.994 26.9473 148.27 26.9391 148.585C26.9278 148.896 26.8091 149.153 26.5829 149.355C26.3567 149.557 26.0881 149.645 25.7772 149.621C25.4633 149.593 25.2008 149.461 24.9899 149.225C24.7789 148.988 24.679 148.714 24.6903 148.403C24.6985 148.088 24.8157 147.829 25.0419 147.627C25.2681 147.426 25.5382 147.339 25.8521 147.366C26.163 147.39 26.424 147.521 26.6349 147.757Z" fill="#F4AC0F"/>
<path d="M21.1142 143.856L32.2384 135.177L33.2385 136.459L22.1142 145.138L21.1142 143.856Z" fill="#F4AC0F"/>
<path d="M28.1094 128.747C28.6069 129.563 28.8492 130.397 28.8365 131.249C28.8214 132.098 28.5701 132.907 28.0826 133.678C27.5927 134.445 26.8811 135.113 25.9479 135.682C25.0068 136.256 24.0814 136.586 23.1714 136.673C22.2591 136.756 21.4223 136.61 20.6611 136.235C19.8974 135.857 19.2669 135.259 18.7695 134.444C18.272 133.628 18.0309 132.796 18.046 131.948C18.0587 131.095 18.312 130.285 18.8058 129.515C19.2972 128.742 20.0135 128.069 20.9545 127.495C21.8877 126.926 22.8085 126.601 23.7169 126.52C24.623 126.435 25.4578 126.583 26.2214 126.961C26.9827 127.336 27.612 127.932 28.1094 128.747ZM26.8625 129.508C26.4847 128.888 26.015 128.475 25.4535 128.269C24.8919 128.063 24.2938 128.021 23.659 128.145C23.0243 128.269 22.4049 128.514 21.8011 128.883C21.1973 129.251 20.6932 129.69 20.2889 130.2C19.8845 130.711 19.6436 131.264 19.566 131.86C19.4884 132.456 19.6385 133.064 20.0164 133.683C20.3942 134.303 20.8659 134.714 21.4313 134.918C21.9968 135.122 22.5988 135.161 23.2375 135.035C23.8762 134.909 24.4975 134.662 25.1013 134.294C25.7052 133.926 26.2073 133.488 26.6077 132.98C27.0081 132.472 27.2451 131.921 27.3188 131.328C27.3925 130.734 27.2404 130.127 26.8625 129.508Z" fill="#F4AC0F"/>
<path d="M8.26795 120.351L21.4983 115.449L22.0631 116.974L8.83278 121.876L8.26795 120.351Z" fill="white"/>
<path d="M20.4751 112.387L10.3296 115.395L9.86756 113.836L20.0131 110.829L20.4751 112.387ZM8.40375 115.103C8.49381 115.407 8.468 115.7 8.3263 115.981C8.18329 116.258 7.96648 116.44 7.67585 116.526C7.38522 116.612 7.10445 116.578 6.83353 116.424C6.56131 116.265 6.38017 116.034 6.29011 115.73C6.20005 115.426 6.22652 115.135 6.36952 114.858C6.51122 114.577 6.72738 114.393 7.01801 114.307C7.30864 114.221 7.59006 114.257 7.86228 114.416C8.1332 114.57 8.31369 114.799 8.40375 115.103Z" fill="white"/>
<path d="M12.4967 107.086L18.767 105.988L19.0474 107.589L8.62409 109.414L8.35321 107.867L9.98185 107.582L9.95809 107.446C9.38601 107.295 8.89581 106.998 8.48748 106.557C8.07463 106.116 7.7993 105.502 7.66148 104.715C7.53792 104.009 7.57458 103.366 7.77145 102.786C7.96379 102.207 8.32602 101.72 8.85813 101.323C9.38572 100.928 10.0929 100.652 10.9796 100.497L17.6027 99.3377L17.8831 100.939L11.3685 102.08C10.5497 102.223 9.94902 102.547 9.56655 103.053C9.17956 103.559 9.051 104.183 9.1809 104.925C9.2704 105.436 9.46123 105.873 9.7534 106.237C10.0448 106.596 10.4233 106.854 10.8889 107.011C11.3546 107.167 11.8905 107.192 12.4967 107.086Z" fill="white"/>
<path d="M13.41 94.4096L11.3992 94.4735L11.3932 94.1428L6.59823 89.5991L6.56195 87.5877L11.6379 92.4296L11.6404 92.5674L13.41 94.4096ZM17.2946 95.8554L3.18785 96.1099L3.15852 94.4843L17.2653 94.2298L17.2946 95.8554ZM17.1734 89.1327L12.013 93.3599L10.8625 92.2231L17.1361 87.0662L17.1734 89.1327Z" fill="white"/>
<path d="M14.8629 72.8083L15.3053 70.9874L17.6844 69.9489L18.3176 69.6774L21.8964 68.1364L21.4541 69.9573L19.0814 70.9689L18.4816 71.2202L14.8629 72.8083ZM13.8926 65.5964C15.3386 65.9477 16.5248 66.5124 17.4512 67.2904C18.3776 68.0684 19.0158 68.9821 19.3659 70.0313C19.716 71.0805 19.749 72.1898 19.4649 73.3591C19.1809 74.5284 18.6426 75.4989 17.8502 76.2706C17.0577 77.0423 16.0715 77.5612 14.8913 77.8275C13.7112 78.0938 12.3981 78.0513 10.9521 77.7C9.50613 77.3487 8.31992 76.7841 7.39351 76.006C6.46709 75.228 5.82885 74.3143 5.47877 73.2651C5.12868 72.2159 5.09568 71.1066 5.37974 69.9373C5.66381 68.768 6.20206 67.7975 6.99451 67.0259C7.78695 66.2542 8.77324 65.7352 9.95336 65.4689C11.1335 65.2026 12.4465 65.2451 13.8926 65.5964ZM13.5022 67.2031C12.3151 66.9147 11.2649 66.8699 10.3517 67.0687C9.43952 67.263 8.69183 67.6462 8.10859 68.2181C7.52644 68.7857 7.13453 69.4845 6.93286 70.3146C6.7312 71.1447 6.75827 71.9477 7.01407 72.7235C7.27096 73.4949 7.75952 74.1784 8.47975 74.774C9.20107 75.3652 10.1553 75.805 11.3425 76.0934C12.5296 76.3818 13.5793 76.4288 14.4914 76.2345C15.4046 76.0357 16.1523 75.6525 16.7345 75.085C17.3177 74.513 17.7102 73.8119 17.9118 72.9818C18.1135 72.1517 18.0859 71.351 17.829 70.5796C17.5732 69.8038 17.0846 69.1203 16.3633 68.5291C15.6431 67.9335 14.6894 67.4915 13.5022 67.2031Z" fill="white"/>
<path d="M20.7672 56.4442L15.0683 53.8648L15.7388 52.3836L25.3791 56.747L24.7087 58.2282L23.0768 57.4896L23.0314 57.59C23.4187 58.0376 23.6759 58.5775 23.8031 59.2097C23.9261 59.8401 23.8229 60.5194 23.4933 61.2474C23.2206 61.8499 22.8464 62.3258 22.3707 62.6752C21.8908 63.0226 21.3225 63.209 20.6657 63.2344C20.0047 63.2578 19.2642 63.084 18.4441 62.7128L12.3185 59.9402L12.9889 58.459L19.0141 61.1861C19.717 61.5043 20.3667 61.5614 20.9632 61.3575C21.5615 61.1494 21.9999 60.7378 22.2783 60.1227C22.4449 59.7545 22.5203 59.3374 22.5043 58.8714C22.4903 58.4013 22.3474 57.9484 22.0757 57.5129C21.8059 57.0731 21.3697 56.7169 20.7672 56.4442Z" fill="white"/>
<path d="M27.1524 53.7532L18.0736 48.3171L18.9089 46.9222L27.9876 52.3583L27.1524 53.7532ZM16.9852 46.7018C16.8224 46.9737 16.5894 47.1527 16.2862 47.2389C15.9854 47.3211 15.705 47.2843 15.4449 47.1286C15.1849 46.9729 15.02 46.743 14.9504 46.439C14.8832 46.1311 14.931 45.8412 15.0938 45.5693C15.2566 45.2974 15.4884 45.1204 15.7892 45.0382C16.0924 44.9521 16.374 44.9869 16.6341 45.1426C16.8941 45.2983 17.0578 45.5301 17.125 45.838C17.1946 46.142 17.148 46.4299 16.9852 46.7018Z" fill="white"/>
<path d="M32.4908 46.1978C31.8901 46.9873 31.1863 47.5253 30.3797 47.8117C29.573 48.0982 28.7257 48.146 27.8379 47.9551C26.95 47.7643 26.0858 47.349 25.2451 46.7093C24.3899 46.0585 23.7548 45.327 23.3397 44.5148C22.9238 43.6962 22.7469 42.8632 22.8088 42.0158C22.8699 41.1619 23.1897 40.3549 23.7682 39.5947C24.2188 39.0026 24.7345 38.5524 25.3154 38.2442C25.8962 37.9359 26.4995 37.7803 27.125 37.7773C27.7506 37.7743 28.3544 37.9366 28.9363 38.264L27.9517 39.5578C27.4929 39.3644 26.9861 39.3251 26.4314 39.4397C25.8758 39.5479 25.3811 39.887 24.9472 40.4572C24.5633 40.9616 24.3584 41.5039 24.3323 42.0843C24.3053 42.6582 24.4487 43.232 24.7625 43.8055C25.0755 44.3726 25.5499 44.8982 26.1859 45.3821C26.8364 45.8772 27.4808 46.206 28.119 46.3684C28.76 46.5272 29.3571 46.5199 29.9104 46.3465C30.4665 46.1694 30.9392 45.8251 31.3286 45.3134C31.5845 44.9771 31.7582 44.6275 31.8499 44.2643C31.9415 43.9012 31.95 43.5412 31.8753 43.1843C31.8007 42.8273 31.6404 42.4918 31.3946 42.1778L32.3792 40.884C32.8206 41.3353 33.1307 41.857 33.3093 42.4489C33.4871 43.0343 33.5136 43.6518 33.3887 44.3013C33.2629 44.9443 32.9637 45.5765 32.4908 46.1978Z" fill="white"/>
<path d="M35.2811 36.7007L33.8638 35.2727L34.1017 35.043L34.1587 28.4374L35.6058 27.04L35.5222 34.0544L35.4231 34.1501L35.2811 36.7007ZM36.8707 40.5287L27.0699 30.3793L28.2394 29.2499L38.0403 39.3993L36.8707 40.5287ZM41.7075 35.858L35.097 34.963L35.1448 33.3462L43.1942 34.4223L41.7075 35.858Z" fill="white"/>
<path d="M51.5176 16.1775L53.6001 27.2658L52.1819 28.1157L43.3862 21.0501L44.899 20.1436L51.7389 25.8753L51.8334 25.8187L50.0048 17.0841L51.5176 16.1775Z" fill="white"/>
<path d="M59.3055 24.2561L54.9002 14.6348L56.3785 13.958L60.7838 23.5792L59.3055 24.2561ZM54.9177 12.6871C54.6295 12.819 54.3361 12.8347 54.0375 12.734C53.743 12.6314 53.5327 12.4423 53.4065 12.1667C53.2803 11.8911 53.2746 11.6083 53.3893 11.3184C53.5082 11.0265 53.7118 10.8146 53.9999 10.6827C54.288 10.5508 54.5794 10.5361 54.8738 10.6387C55.1725 10.7393 55.3849 10.9275 55.5111 11.2031C55.6373 11.4787 55.6409 11.7624 55.522 12.0543C55.4073 12.3442 55.2058 12.5552 54.9177 12.6871Z" fill="white"/>
<path d="M68.0994 21.0165C67.1311 21.3358 66.2254 21.3976 65.3822 21.2017C64.5419 21.0001 63.8047 20.5758 63.1706 19.9289C62.5395 19.2762 62.0541 18.4352 61.7147 17.4059C61.3752 16.3765 61.2635 15.4074 61.3797 14.4986C61.4988 13.584 61.8237 12.7949 62.3545 12.1314C62.8882 11.4621 63.6087 10.9778 64.5159 10.6786C65.0393 10.506 65.585 10.4228 66.1528 10.429C66.7207 10.4351 67.2787 10.5654 67.8269 10.8199C68.3737 11.07 68.8771 11.4746 69.3371 12.0338C69.7972 12.593 70.1819 13.3415 70.4912 14.2792L70.7069 14.9335L62.9605 17.4883L62.5204 16.1536L68.6966 14.1167C68.5095 13.5496 68.2293 13.0811 67.8557 12.711C67.4866 12.3395 67.0524 12.0933 66.5531 11.9727C66.0583 11.8505 65.5317 11.8815 64.9734 12.0657C64.3584 12.2685 63.8766 12.5966 63.528 13.0501C63.1824 13.4978 62.9695 14.0033 62.8892 14.5666C62.809 15.1298 62.8602 15.6884 63.0429 16.2424L63.3364 17.1322C63.5867 17.8911 63.9297 18.4913 64.3655 18.9328C64.8042 19.3684 65.3043 19.646 65.866 19.7654C66.4263 19.8805 67.0183 19.8351 67.642 19.6294C68.0476 19.4957 68.3953 19.3181 68.6851 19.0968C68.9777 18.8697 69.2059 18.6011 69.3695 18.2908C69.5317 17.9761 69.6207 17.6227 69.6365 17.2307L71.2663 17.1574C71.2761 17.7152 71.159 18.2471 70.9148 18.7532C70.6692 19.2549 70.3091 19.7026 69.8343 20.0961C69.3582 20.4853 68.7799 20.7921 68.0994 21.0165Z" fill="white"/>
<path d="M77.0933 18.3973L72.5392 8.31613L74.2336 8.09711L77.5406 15.8388L77.6499 15.8246L78.8523 7.50009L80.5741 7.27753L83.8228 14.9989L83.9321 14.9848L85.1654 6.68405L86.8598 6.46502L85.0188 17.3728L83.4337 17.5777L80.0959 9.8123L79.9319 9.8335L78.6784 18.1924L77.0933 18.3973Z" fill="white"/>
</svg>
