<svg width="135" height="136" viewBox="0 0 135 136" fill="none" xmlns="http://www.w3.org/2000/svg">
<path d="M69.1137 13.0659L70.0975 2.22398L73.7609 2.5564C74.6114 2.63358 75.2928 2.85019 75.8049 3.20624C76.3209 3.55908 76.6859 4.00675 76.9 4.54925C77.1141 5.09175 77.1921 5.6824 77.1342 6.3212C77.0762 6.96001 76.8929 7.52872 76.5844 8.02736C76.2793 8.52631 75.8427 8.90658 75.2746 9.16816C74.7067 9.42621 74.0011 9.51696 73.1576 9.44043L70.5318 9.20216L70.6375 8.0375L73.2209 8.27192C73.8032 8.32476 74.28 8.26661 74.6512 8.09746C75.0224 7.92832 75.3029 7.67978 75.4928 7.35185C75.6865 7.02072 75.8031 6.6381 75.8425 6.20399C75.8818 5.76989 75.8359 5.3743 75.7046 5.01723C75.5769 4.66048 75.3436 4.36888 75.0047 4.14242C74.6662 3.91244 74.2022 3.7707 73.6128 3.71722L71.3047 3.50778L70.4266 13.1851L69.1137 13.0659Z" fill="white"/>
<path d="M81.8573 15.231C81.1463 15.0364 80.5688 14.6964 80.1248 14.2112C79.6842 13.7268 79.3968 13.1393 79.2625 12.4486C79.1317 11.7588 79.1776 11.0071 79.4002 10.1936C79.6248 9.37326 79.9694 8.69788 80.4343 8.16743C80.9025 7.63793 81.4496 7.27695 82.0754 7.08451C82.7047 6.893 83.3748 6.89455 84.0857 7.08914C84.7967 7.28373 85.3725 7.62319 85.8131 8.10753C86.2571 8.5928 86.544 9.18204 86.6739 9.87527C86.8073 10.5694 86.7617 11.3267 86.5371 12.147C86.3145 12.9605 85.9695 13.6303 85.5022 14.1564C85.0383 14.6834 84.4917 15.0427 83.8624 15.2342C83.2366 15.4266 82.5682 15.4256 81.8573 15.231ZM82.1548 14.144C82.6948 14.2918 83.177 14.275 83.6015 14.0936C84.0259 13.9122 84.3836 13.6188 84.6746 13.2134C84.9655 12.8081 85.1831 12.3422 85.3271 11.8158C85.4712 11.2894 85.5217 10.776 85.4787 10.2756C85.4356 9.77515 85.2781 9.33707 85.0062 8.96137C84.7343 8.58566 84.3283 8.3239 83.7882 8.17608C83.2482 8.02827 82.7655 8.04679 82.3401 8.23164C81.9147 8.4165 81.5561 8.71331 81.2642 9.12207C80.9723 9.53083 80.7543 9.9984 80.6102 10.5248C80.4661 11.0512 80.4161 11.5629 80.4601 12.0599C80.5041 12.5569 80.6625 12.9916 80.9354 13.3639C81.2082 13.7362 81.6147 13.9962 82.1548 14.144Z" fill="white"/>
<path d="M87.5378 16.9141L90.7914 9.42545L91.903 9.9084L91.4116 11.0395L91.4896 11.0734C91.7871 10.7622 92.1647 10.5688 92.6225 10.4934C93.0803 10.418 93.5335 10.4777 93.982 10.6726C94.0665 10.7093 94.1714 10.7568 94.2968 10.8151C94.4221 10.8735 94.5159 10.92 94.5781 10.9547L94.0697 12.1248C94.0349 12.0981 93.9519 12.0447 93.8206 11.9644C93.694 11.8824 93.5543 11.8082 93.4015 11.7418C93.0375 11.5836 92.6793 11.5188 92.3269 11.5473C91.9792 11.574 91.6645 11.6845 91.383 11.879C91.1061 12.0717 90.8942 12.3371 90.7473 12.6751L88.6884 17.414L87.5378 16.9141Z" fill="white"/>
<path d="M100.144 14.095L99.6252 15.0228L95.9326 12.957L96.4516 12.0291L100.144 14.095ZM98.4829 10.9241L99.5778 11.5366L95.7783 18.3281C95.6052 18.6374 95.5203 18.8945 95.5235 19.0993C95.5315 19.3027 95.5919 19.4705 95.7048 19.6027C95.8224 19.7335 95.9617 19.8439 96.1225 19.9338C96.2431 20.0013 96.3456 20.0505 96.4298 20.0814C96.5158 20.1092 96.5845 20.1314 96.6361 20.1481L96.3086 21.2561C96.2188 21.2425 96.0996 21.2123 95.9511 21.1658C95.8008 21.1223 95.6236 21.0435 95.4194 20.9293C95.1102 20.7562 94.8443 20.5202 94.6218 20.2211C94.4024 19.9238 94.2714 19.5845 94.2288 19.2033C94.1893 18.8239 94.2855 18.427 94.5173 18.0126L98.4829 10.9241Z" fill="white"/>
<path d="M104.742 17.2046L104.14 18.0808L100.512 15.5883L101.114 14.7121L104.742 17.2046ZM97.577 22.188L102.839 14.5298C103.104 14.1443 103.415 13.8852 103.773 13.7526C104.131 13.62 104.498 13.5888 104.876 13.659C105.253 13.7291 105.603 13.8746 105.924 14.0954C106.178 14.27 106.371 14.4329 106.504 14.5842C106.636 14.7354 106.73 14.8557 106.785 14.9449L105.873 15.634C105.832 15.5803 105.774 15.5082 105.699 15.4177C105.626 15.3292 105.516 15.2338 105.367 15.1315C105.025 14.8967 104.719 14.8132 104.449 14.8812C104.181 14.9512 103.933 15.1526 103.704 15.4856L98.6109 22.8985L97.577 22.188Z" fill="white"/>
<path d="M103.885 27.3179C103.338 26.8229 102.977 26.2587 102.8 25.6251C102.626 24.9939 102.635 24.3399 102.828 23.6631C103.023 22.9886 103.403 22.3389 103.97 21.7139C104.541 21.0836 105.154 20.637 105.808 20.3739C106.465 20.1133 107.116 20.0386 107.761 20.1498C108.409 20.2634 109.006 20.5677 109.553 21.0626C110.099 21.5576 110.459 22.1207 110.633 22.7518C110.81 23.3854 110.799 24.0407 110.602 24.7178C110.407 25.3973 110.024 26.0521 109.453 26.6824C108.887 27.3074 108.276 27.7489 107.622 28.0069C106.97 28.2674 106.32 28.3408 105.672 28.2271C105.026 28.1159 104.431 27.8128 103.885 27.3179ZM104.641 26.4828C105.056 26.8588 105.494 27.0617 105.954 27.0918C106.415 27.1218 106.867 27.0217 107.31 26.7917C107.752 26.5617 108.157 26.2444 108.523 25.84C108.89 25.4356 109.167 25.0005 109.355 24.5346C109.543 24.0688 109.6 23.6068 109.527 23.1487C109.455 22.6907 109.211 22.2737 108.796 21.8977C108.381 21.5217 107.942 21.3201 107.479 21.2927C107.016 21.2653 106.562 21.368 106.117 21.6006C105.672 21.8333 105.266 22.1518 104.899 22.5562C104.533 22.9606 104.257 23.3945 104.072 23.8577C103.886 24.3209 103.831 24.7803 103.906 25.2357C103.981 25.6911 104.226 26.1068 104.641 26.4828Z" fill="white"/>
<path d="M117.198 25.1886L108.976 32.3249L108.154 31.3775L116.375 24.2413L117.198 25.1886Z" fill="white"/>
<path d="M110.561 34.2792L117.082 29.3655L117.837 30.3674L111.316 35.2811L110.561 34.2792ZM118.553 29.0559C118.405 28.8607 118.345 28.6421 118.371 28.4004C118.4 28.1615 118.508 27.9716 118.694 27.8309C118.881 27.6901 119.093 27.639 119.331 27.6774C119.571 27.7187 119.764 27.837 119.911 28.0322C120.058 28.2275 120.118 28.4446 120.089 28.6835C120.063 28.9253 119.956 29.1165 119.769 29.2573C119.583 29.3981 119.369 29.4478 119.13 29.4065C118.892 29.3681 118.7 29.2512 118.553 29.0559Z" fill="white"/>
<path d="M114.417 40.3241C114.047 39.6864 113.874 39.039 113.899 38.3817C113.925 37.7274 114.133 37.1072 114.522 36.521C114.913 35.9378 115.473 35.4347 116.203 35.0116C116.939 34.5849 117.658 34.3458 118.362 34.2943C119.067 34.2458 119.71 34.3727 120.291 34.6749C120.873 34.9802 121.349 35.4517 121.719 36.0893C122.089 36.727 122.261 37.3729 122.235 38.0271C122.21 38.6844 122.001 39.3055 121.607 39.8905C121.215 40.4785 120.651 40.9858 119.915 41.4125C119.185 41.8356 118.469 42.0705 117.767 42.1172C117.067 42.1669 116.426 42.0392 115.843 41.7339C115.262 41.4317 114.787 40.9617 114.417 40.3241ZM115.392 39.7587C115.673 40.2431 116.028 40.5696 116.458 40.7383C116.887 40.907 117.348 40.9491 117.84 40.8646C118.332 40.7802 118.813 40.6011 119.286 40.3273C119.758 40.0535 120.154 39.7233 120.475 39.3366C120.795 38.9499 120.991 38.5274 121.061 38.0689C121.131 37.6104 121.025 37.139 120.744 36.6547C120.463 36.1703 120.107 35.8447 119.674 35.6778C119.241 35.5109 118.777 35.4705 118.283 35.5568C117.788 35.643 117.304 35.823 116.832 36.0968C116.36 36.3706 115.965 36.6999 115.648 37.0848C115.33 37.4697 115.138 37.8905 115.071 38.3472C115.004 38.8039 115.111 39.2744 115.392 39.7587Z" fill="white"/>
<path d="M119.014 49.7909L129.486 46.8151L129.847 48.0832L120.5 50.7393L121.883 55.6071L120.758 55.9268L119.014 49.7909Z" fill="white"/>
<path d="M121.068 58.0697L129.127 56.7648L129.328 58.0032L121.268 59.3081L121.068 58.0697ZM130.573 57.177C130.534 56.9356 130.582 56.7142 130.718 56.5126C130.855 56.3146 131.039 56.1969 131.27 56.1595C131.5 56.1221 131.712 56.1758 131.904 56.3206C132.097 56.4689 132.213 56.6638 132.252 56.9051C132.291 57.1465 132.242 57.3662 132.105 57.5642C131.969 57.7658 131.786 57.8852 131.555 57.9226C131.324 57.96 131.112 57.9045 130.92 57.7562C130.727 57.6115 130.612 57.4184 130.573 57.177Z" fill="white"/>
<path d="M126.65 62.9466L121.743 63.1514L121.69 61.898L129.848 61.5576L129.899 62.7685L128.624 62.8217L128.628 62.9279C129.051 63.1018 129.396 63.3783 129.663 63.7573C129.934 64.1361 130.083 64.6336 130.109 65.2496C130.132 65.802 130.038 66.29 129.829 66.7137C129.623 67.1373 129.297 67.4737 128.85 67.7229C128.406 67.972 127.837 68.111 127.143 68.1399L121.96 68.3562L121.907 67.1028L127.006 66.8901C127.647 66.8633 128.139 66.6761 128.483 66.3283C128.83 65.9804 128.992 65.5161 128.968 64.9355C128.951 64.5354 128.849 64.1814 128.663 63.8735C128.476 63.5692 128.213 63.3336 127.872 63.1669C127.532 63.0003 127.124 62.9268 126.65 62.9466Z" fill="white"/>
<path d="M124.645 72.6875L126.189 72.854L126.158 73.1073L129.335 77.0928L129.148 78.6335L125.787 74.3903L125.8 74.2847L124.645 72.6875ZM121.832 71.1669L132.638 72.4827L132.487 73.728L121.68 72.4122L121.832 71.1669ZM121.205 76.3169L125.6 73.6392L126.358 74.6311L121.012 77.8999L121.205 76.3169Z" fill="white"/>
<path d="M121.118 89.0297L120.567 90.3666L118.631 90.8798L118.117 91.0128L115.207 91.7687L115.757 90.4318L117.685 89.9383L118.172 89.8169L121.118 89.0297ZM121.013 94.6436C119.951 94.2062 119.113 93.6366 118.498 92.9347C117.882 92.2328 117.503 91.4612 117.358 90.62C117.214 89.7788 117.319 88.9289 117.673 88.0705C118.026 87.212 118.551 86.5349 119.245 86.0392C119.94 85.5436 120.753 85.2633 121.684 85.1985C122.616 85.1337 123.612 85.3199 124.674 85.7573C125.735 86.1946 126.574 86.7642 127.189 87.4661C127.805 88.1681 128.184 88.9396 128.328 89.7808C128.472 90.622 128.368 91.4719 128.014 92.3304C127.66 93.1889 127.136 93.8659 126.441 94.3616C125.747 94.8573 124.934 95.1375 124.002 95.2023C123.071 95.2671 122.075 95.0809 121.013 94.6436ZM121.499 93.464C122.371 93.823 123.166 93.9802 123.886 93.9356C124.604 93.8943 125.22 93.6897 125.731 93.3218C126.242 92.9571 126.623 92.4701 126.874 91.8606C127.125 91.2512 127.198 90.6356 127.094 90.014C126.988 89.3956 126.696 88.8171 126.216 88.2785C125.736 87.7431 125.059 87.2959 124.188 86.9369C123.316 86.5778 122.521 86.419 121.803 86.4603C121.083 86.5049 120.468 86.7095 119.957 87.0741C119.446 87.442 119.064 87.9307 118.813 88.5402C118.562 89.1496 118.489 89.7636 118.595 90.3819C118.699 91.0036 118.992 91.5821 119.472 92.1175C119.952 92.6561 120.627 93.1049 121.499 93.464Z" fill="white"/>
<path d="M114.611 100.854L118.634 103.521L117.94 104.567L111.135 100.055L111.829 99.0093L112.98 99.773L113.027 99.7021C112.788 99.3135 112.658 98.8705 112.639 98.3733C112.623 97.8779 112.786 97.3733 113.126 96.8594C113.408 96.4341 113.752 96.1177 114.157 95.9103C114.566 95.7048 115.022 95.6329 115.525 95.6945C116.031 95.7581 116.574 95.9818 117.153 96.3656L121.477 99.2324L120.784 100.278L116.531 97.4581C116.034 97.1292 115.547 97.0056 115.067 97.0874C114.586 97.1722 114.201 97.4316 113.913 97.8658C113.741 98.1257 113.632 98.4341 113.587 98.791C113.54 99.1509 113.593 99.5134 113.746 99.8787C113.897 100.247 114.186 100.572 114.611 100.854Z" fill="white"/>
<path d="M109.392 102.13L115.613 107.417L114.8 108.373L108.579 103.085L109.392 102.13ZM116.237 108.785C116.395 108.598 116.595 108.492 116.837 108.465C117.076 108.44 117.285 108.504 117.463 108.655C117.641 108.807 117.738 109.002 117.752 109.243C117.764 109.485 117.691 109.7 117.533 109.886C117.374 110.073 117.176 110.178 116.936 110.203C116.695 110.23 116.485 110.167 116.306 110.016C116.128 109.865 116.033 109.667 116.021 109.424C116.006 109.184 116.078 108.971 116.237 108.785Z" fill="white"/>
<path d="M104.342 107.212C104.902 106.689 105.507 106.372 106.158 106.259C106.809 106.147 107.46 106.221 108.11 106.481C108.76 106.742 109.363 107.171 109.919 107.767C110.485 108.373 110.873 109.012 111.082 109.684C111.292 110.361 111.318 111.017 111.16 111.654C111.003 112.295 110.654 112.867 110.115 113.37C109.695 113.762 109.245 114.037 108.763 114.195C108.281 114.354 107.802 114.394 107.326 114.315C106.849 114.235 106.411 114.033 106.012 113.709L106.929 112.853C107.253 113.06 107.633 113.156 108.07 113.141C108.506 113.131 108.927 112.938 109.331 112.56C109.689 112.227 109.915 111.841 110.011 111.403C110.106 110.97 110.072 110.515 109.908 110.038C109.744 109.566 109.451 109.104 109.031 108.654C108.601 108.192 108.153 107.858 107.689 107.652C107.222 107.447 106.767 107.375 106.324 107.435C105.878 107.497 105.474 107.697 105.111 108.036C104.872 108.258 104.695 108.501 104.578 108.766C104.461 109.03 104.407 109.302 104.418 109.584C104.428 109.865 104.506 110.141 104.652 110.412L103.735 111.267C103.458 110.867 103.29 110.429 103.231 109.956C103.172 109.488 103.233 109.015 103.412 108.537C103.592 108.064 103.902 107.622 104.342 107.212Z" fill="white"/>
<path d="M100.922 114.094L101.804 115.371L101.592 115.513L100.651 120.522L99.3619 121.387L100.379 116.071L100.467 116.012L100.922 114.094ZM100.235 110.97L106.299 120.011L105.257 120.71L99.1928 111.669L100.235 110.97ZM95.9261 113.86L100.825 115.439L100.569 116.66L94.6017 114.749L95.9261 113.86Z" fill="white"/>
<path d="M92.0456 128.02L86.0007 120.411L85.8801 120.453L85.8148 130.17L84.5083 130.621L84.7353 119.026L86.0217 118.582L93.352 127.569L92.0456 128.02Z" fill="white"/>
<path d="M78.9173 120.61L80.5188 128.617L79.2887 128.863L77.6871 120.856L78.9173 120.61ZM80.1603 130.076C80.4 130.028 80.6231 130.068 80.8296 130.197C81.0325 130.326 81.1569 130.506 81.2028 130.735C81.2487 130.964 81.2028 131.178 81.0652 131.375C80.9241 131.573 80.7337 131.696 80.4939 131.744C80.2542 131.792 80.0328 131.751 79.8299 131.622C79.6234 131.494 79.4973 131.315 79.4514 131.085C79.4055 130.856 79.4531 130.642 79.5942 130.444C79.7318 130.247 79.9205 130.124 80.1603 130.076Z" fill="white"/>
<path d="M71.7382 121.469C72.5222 121.404 73.2129 121.521 73.8101 121.82C74.4041 122.123 74.8807 122.574 75.2397 123.174C75.5955 123.777 75.8079 124.496 75.8769 125.329C75.9459 126.163 75.8548 126.91 75.6038 127.571C75.3494 128.235 74.9633 128.769 74.4455 129.171C73.9243 129.577 73.2965 129.81 72.5619 129.871C72.1381 129.906 71.7137 129.87 71.2888 129.763C70.8639 129.656 70.4688 129.457 70.1034 129.168C69.7384 128.881 69.4337 128.487 69.1894 127.985C68.9451 127.482 68.7915 126.851 68.7286 126.092L68.6848 125.562L74.9571 125.043L75.0465 126.123L70.0457 126.538C70.0837 126.997 70.2094 127.399 70.4229 127.744C70.6328 128.089 70.9142 128.352 71.267 128.533C71.6162 128.714 72.0168 128.785 72.4689 128.748C72.9669 128.707 73.3875 128.547 73.7308 128.27C74.0708 127.996 74.3218 127.656 74.4835 127.248C74.6453 126.839 74.7077 126.411 74.6705 125.963L74.6109 125.242C74.56 124.628 74.4109 124.115 74.1636 123.706C73.9131 123.3 73.5879 123.001 73.188 122.81C72.7885 122.623 72.3362 122.55 71.8312 122.592C71.5027 122.619 71.2099 122.69 70.9526 122.803C70.6921 122.921 70.4724 123.081 70.2937 123.285C70.1152 123.491 69.9847 123.741 69.9022 124.032L68.6663 123.793C68.7595 123.373 68.9433 122.995 69.2178 122.659C69.4925 122.327 69.8435 122.056 70.2706 121.846C70.698 121.64 71.1872 121.515 71.7382 121.469Z" fill="white"/>
<path d="M64.3571 121.795L65.8909 130.191L64.5813 130.04L63.5459 123.627L63.4614 123.618L61.0117 129.627L59.681 129.474L58.6854 123.087L58.6009 123.077L56.1325 129.063L54.8229 128.912L58.2317 121.087L59.4568 121.228L60.5108 127.665L60.6375 127.679L63.132 121.653L64.3571 121.795Z" fill="white"/>
<path d="M49.34 118.784L45.0565 128.792L41.6748 127.345C40.8896 127.009 40.3085 126.593 39.9313 126.096C39.5495 125.601 39.3405 125.062 39.3044 124.48C39.2683 123.898 39.3765 123.312 39.6288 122.723C39.8812 122.133 40.2311 121.649 40.6786 121.27C41.1228 120.889 41.6555 120.662 42.2766 120.589C42.8964 120.519 43.5956 120.65 44.3743 120.984L46.7982 122.021L46.338 123.096L43.9532 122.076C43.4157 121.845 42.9442 121.754 42.539 121.8C42.1337 121.846 41.7901 121.996 41.5083 122.249C41.2218 122.504 40.9927 122.832 40.8212 123.233C40.6497 123.634 40.5713 124.024 40.5859 124.404C40.5972 124.783 40.7291 125.132 40.9815 125.452C41.2324 125.776 41.63 126.054 42.174 126.287L44.3047 127.199L48.1281 118.265L49.34 118.784Z" fill="#F79F14"/>
<path d="M37.8676 112.774C38.4835 113.179 38.9277 113.681 39.1999 114.279C39.4692 114.876 39.561 115.524 39.4752 116.222C39.3864 116.919 39.1104 117.619 38.6472 118.324C38.18 119.035 37.6435 119.571 37.0374 119.931C36.4284 120.29 35.7966 120.464 35.1419 120.454C34.4843 120.442 33.8475 120.233 33.2315 119.828C32.6155 119.423 32.1729 118.923 31.9036 118.326C31.6313 117.727 31.5405 117.078 31.6313 116.379C31.719 115.677 31.9965 114.971 32.4636 114.26C32.9268 113.555 33.4619 113.025 34.069 112.669C34.6731 112.311 35.3039 112.139 35.9616 112.151C36.6162 112.162 37.2516 112.369 37.8676 112.774ZM37.2486 113.716C36.7807 113.408 36.3169 113.275 35.8572 113.317C35.3975 113.358 34.9666 113.526 34.5646 113.822C34.1625 114.117 33.8117 114.493 33.5119 114.949C33.2122 115.405 33.0055 115.878 32.8917 116.367C32.778 116.857 32.7924 117.322 32.9348 117.763C33.0773 118.205 33.3825 118.579 33.8504 118.887C34.3183 119.194 34.7831 119.326 35.2448 119.281C35.7065 119.237 36.1393 119.066 36.5432 118.767C36.9472 118.469 37.2991 118.091 37.5988 117.635C37.8985 117.179 38.1043 116.708 38.2161 116.222C38.3279 115.735 38.3116 115.273 38.1671 114.835C38.0227 114.396 37.7165 114.023 37.2486 113.716Z" fill="#F79F14"/>
<path d="M32.9679 109.407L27.566 115.529L26.6572 114.727L27.4731 113.803L27.4093 113.746C27.0304 113.951 26.6116 114.018 26.1528 113.949C25.694 113.88 25.2813 113.684 24.9146 113.36C24.8455 113.299 24.7603 113.222 24.659 113.127C24.5577 113.033 24.4829 112.96 24.4344 112.908L25.2784 111.951C25.3033 111.987 25.3658 112.064 25.466 112.181C25.5612 112.298 25.6713 112.411 25.7962 112.522C26.0938 112.784 26.4146 112.956 26.7586 113.038C27.0977 113.119 27.4311 113.111 27.7589 113.013C28.0816 112.915 28.365 112.727 28.6088 112.451L32.0272 108.577L32.9679 109.407Z" fill="#F79F14"/>
<path d="M20.1219 108.232L20.9006 107.508L23.7815 110.607L23.0029 111.331L20.1219 108.232ZM20.7305 111.76L19.8764 110.841L25.576 105.542C25.8355 105.301 25.9952 105.082 26.055 104.886C26.1098 104.69 26.1038 104.512 26.0369 104.352C25.965 104.191 25.8663 104.043 25.7409 103.908C25.6468 103.807 25.5644 103.729 25.4937 103.674C25.4204 103.621 25.3617 103.579 25.3177 103.547L25.9694 102.593C26.0506 102.633 26.1548 102.699 26.2819 102.788C26.4117 102.876 26.5561 103.005 26.7154 103.177C26.9567 103.436 27.1373 103.742 27.2574 104.095C27.375 104.446 27.3956 104.809 27.3192 105.185C27.2404 105.558 27.0271 105.906 26.6793 106.229L20.7305 111.76Z" fill="#F79F14"/>
<path d="M16.6934 103.857L17.535 103.207L20.224 106.692L19.3824 107.341L16.6934 103.857ZM25.0409 101.309L17.6848 106.986C17.3145 107.272 16.9388 107.423 16.5576 107.439C16.1765 107.456 15.8171 107.373 15.4793 107.191C15.1415 107.008 14.8535 106.763 14.6154 106.454C14.427 106.21 14.2929 105.996 14.2131 105.811C14.1333 105.626 14.081 105.483 14.0563 105.381L15.1356 105.005C15.1577 105.069 15.1908 105.155 15.2348 105.264C15.2767 105.371 15.3528 105.495 15.4633 105.639C15.7166 105.967 15.9823 106.14 16.2604 106.158C16.5363 106.173 16.8342 106.058 17.1541 105.811L24.2745 100.316L25.0409 101.309Z" fill="#F79F14"/>
<path d="M20.6149 94.5016C20.983 95.1402 21.154 95.7881 21.1279 96.4454C21.1 97.0995 20.8907 97.7192 20.5 98.3044C20.1075 98.8865 19.5458 99.3882 18.8151 99.8094C18.0783 100.234 17.3581 100.471 16.6545 100.521C15.9492 100.568 15.3066 100.439 14.7265 100.135C14.1447 99.8286 13.6697 99.3559 13.3016 98.7173C12.9335 98.0787 12.7634 97.4323 12.7912 96.7781C12.8173 96.1209 13.0282 95.5003 13.4238 94.9164C13.8176 94.3294 14.3829 93.8236 15.1198 93.3988C15.8505 92.9776 16.567 92.7446 17.2692 92.6997C17.9697 92.6518 18.6108 92.7813 19.1926 93.0881C19.7727 93.3918 20.2468 93.863 20.6149 94.5016ZM19.6385 95.0644C19.3589 94.5793 19.0045 94.2519 18.5753 94.0821C18.1461 93.9122 17.6855 93.8689 17.1935 93.9521C16.7015 94.0353 16.2191 94.2131 15.7463 94.4857C15.2735 94.7582 14.8763 95.0874 14.5546 95.4732C14.233 95.8591 14.0366 96.2811 13.9654 96.7394C13.8941 97.1977 13.9983 97.6694 14.2779 98.1545C14.5576 98.6396 14.9135 98.9661 15.3458 99.1342C15.7781 99.3022 16.2418 99.3438 16.7368 99.2588C17.2319 99.1739 17.7158 98.9951 18.1886 98.7226C18.6614 98.45 19.0571 98.1217 19.3757 97.7377C19.6942 97.3536 19.8876 96.9333 19.9557 96.4768C20.0239 96.0203 19.9182 95.5495 19.6385 95.0644Z" fill="#F79F14"/>
<path d="M7.27891 92.4077L17.2991 88.152L17.7895 89.3067L7.76931 93.5623L7.27891 92.4077Z" fill="#F79F14"/>
<path d="M16.4025 85.8263L8.68394 88.4889L8.27485 87.3029L15.9934 84.6404L16.4025 85.8263ZM7.1895 88.3296C7.26924 88.5608 7.25927 88.7872 7.1596 89.0091C7.05878 89.2275 6.89781 89.3749 6.67671 89.4512C6.4556 89.5274 6.23801 89.5107 6.02393 89.4008C5.8087 89.2876 5.66121 89.1155 5.58147 88.8843C5.50173 88.6531 5.51228 88.4283 5.61311 88.2099C5.71278 87.988 5.87317 87.839 6.09427 87.7627C6.31538 87.6865 6.53354 87.7049 6.74878 87.8181C6.96286 87.9279 7.10977 88.0984 7.1895 88.3296Z" fill="#F79F14"/>
<path d="M14.5962 78.8537C14.7501 79.5746 14.7135 80.2437 14.4865 80.861C14.2588 81.4749 13.8691 82.0002 13.3172 82.4368C12.7647 82.87 12.076 83.1746 11.2512 83.3506C10.4194 83.5282 9.66114 83.5324 8.97642 83.3632C8.29096 83.1907 7.71899 82.8707 7.26049 82.4032C6.80125 81.9323 6.49471 81.3365 6.34086 80.6156C6.18701 79.8947 6.22394 79.2273 6.45166 78.6135C6.67864 77.9961 7.07013 77.4705 7.62615 77.0366C8.18142 76.5992 8.87495 76.2917 9.70672 76.1142C10.5316 75.9381 11.285 75.9368 11.967 76.1101C12.6482 76.28 13.2185 76.6003 13.6777 77.0712C14.1362 77.5387 14.4424 78.1328 14.5962 78.8537ZM13.4941 79.0889C13.3773 78.5413 13.1407 78.1207 12.7846 77.8271C12.4284 77.5335 12.0034 77.3507 11.5097 77.2785C11.016 77.2063 10.5023 77.2271 9.96857 77.3411C9.43484 77.455 8.95563 77.646 8.53093 77.9142C8.10624 78.1824 7.78952 78.5236 7.58077 78.9378C7.37203 79.3519 7.32609 79.8328 7.44296 80.3804C7.55983 80.928 7.79808 81.3482 8.15772 81.641C8.51735 81.9339 8.94577 82.116 9.44295 82.1875C9.94014 82.2589 10.4556 82.2377 10.9893 82.1238C11.523 82.0099 12.0005 81.8192 12.4217 81.5517C12.843 81.2843 13.1562 80.9438 13.3615 80.5304C13.5668 80.117 13.611 79.6365 13.4941 79.0889Z" fill="#F79F14"/>
<path d="M9.91941 64.1342L10.0131 62.6914L11.6829 61.5853L12.128 61.2946L14.6427 59.6467L14.549 61.0895L12.8805 62.1744L12.4581 62.4453L9.91941 64.1342ZM8.22132 58.7824C9.3671 58.8567 10.3438 59.1279 11.1516 59.5958C11.9593 60.0638 12.566 60.6731 12.9719 61.4239C13.3777 62.1747 13.5505 63.0134 13.4904 63.9399C13.4302 64.8664 13.1504 65.6757 12.6509 66.3677C12.1514 67.0598 11.471 67.5856 10.6095 67.9451C9.74811 68.3047 8.7445 68.4473 7.59873 68.3729C6.45295 68.2985 5.47621 68.0274 4.66849 67.5594C3.86077 67.0915 3.25401 66.4822 2.84819 65.7314C2.44237 64.9806 2.26953 64.1419 2.32968 63.2154C2.38983 62.2889 2.66964 61.4796 3.16913 60.7875C3.66861 60.0955 4.34907 59.5697 5.21051 59.2101C6.07194 58.8506 7.07555 58.708 8.22132 58.7824ZM8.13868 60.0554C7.19801 59.9944 6.39389 60.1002 5.72631 60.3729C5.05895 60.6421 4.54174 61.0329 4.17465 61.5453C3.8078 62.0542 3.60303 62.6375 3.56033 63.2953C3.51763 63.953 3.64515 64.5597 3.9429 65.1153C4.24088 65.6673 4.70323 66.1217 5.32995 66.4784C5.9569 66.8316 6.74071 67.0388 7.68137 67.0998C8.62204 67.1609 9.42605 67.0568 10.0934 66.7877C10.761 66.5149 11.2782 66.1241 11.6451 65.6153C12.0121 65.1029 12.217 64.5178 12.2597 63.86C12.3024 63.2023 12.1748 62.5974 11.8768 62.0453C11.5791 61.4898 11.1167 61.0354 10.4898 60.6822C9.86304 60.3254 9.07934 60.1165 8.13868 60.0554Z" fill="white"/>
<path d="M12.287 50.8668L7.62139 49.6306L7.9427 48.418L15.8352 50.5092L15.5139 51.7218L14.1779 51.3679L14.1562 51.4501C14.5079 51.7413 14.7725 52.1193 14.95 52.5843C15.124 53.0483 15.132 53.5783 14.9741 54.1744C14.8434 54.6677 14.6193 55.0776 14.3018 55.404C13.9809 55.7296 13.5722 55.9439 13.0756 56.047C12.5757 56.1491 11.99 56.1113 11.3185 55.9334L6.30349 54.6046L6.6248 53.3919L11.5576 54.6989C12.1331 54.8514 12.6348 54.812 13.0627 54.5808C13.4915 54.3461 13.7726 53.977 13.906 53.4735C13.9859 53.172 13.99 52.845 13.9185 52.4924C13.8478 52.1364 13.6814 51.81 13.419 51.5132C13.1577 51.213 12.7803 50.9975 12.287 50.8668Z" fill="white"/>
<path d="M16.8197 47.9986L9.23449 44.9769L9.69876 43.8115L17.2839 46.8332L16.8197 47.9986ZM8.20637 43.8807C8.11588 44.1079 7.96048 44.273 7.74017 44.3759C7.52118 44.4756 7.30304 44.4822 7.08575 44.3956C6.86847 44.3091 6.71459 44.1543 6.62413 43.9313C6.53497 43.7051 6.53564 43.4784 6.62613 43.2512C6.71662 43.0241 6.87137 42.8606 7.09036 42.761C7.31067 42.658 7.52946 42.6498 7.74675 42.7364C7.96403 42.8229 8.11725 42.9793 8.20641 43.2056C8.29688 43.4285 8.29686 43.6536 8.20637 43.8807Z" fill="white"/>
<path d="M19.9898 41.5593C19.6254 42.2324 19.1526 42.726 18.5715 43.04C17.9904 43.354 17.3501 43.4909 16.6505 43.4506C15.951 43.4103 15.2428 43.1961 14.5261 42.808C13.7969 42.4132 13.2259 41.9307 12.8132 41.3607C12.3991 40.7858 12.1655 40.1717 12.1123 39.5182C12.0576 38.86 12.2058 38.2067 12.5568 37.5586C12.8302 37.0537 13.17 36.6494 13.5764 36.3455C13.9827 36.0416 14.4242 35.8515 14.9008 35.7751C15.3774 35.6987 15.8569 35.7508 16.3394 35.9315L15.7421 37.0346C15.3693 36.9416 14.9783 36.9716 14.5689 37.1248C14.1581 37.2731 13.8211 37.5903 13.5579 38.0765C13.325 38.5065 13.233 38.9443 13.2819 39.3899C13.3294 39.8307 13.5067 40.2511 13.814 40.6512C14.1198 41.0465 14.5438 41.391 15.086 41.6846C15.6407 41.985 16.171 42.1593 16.6768 42.2075C17.1843 42.2526 17.6388 42.1763 18.04 41.9785C18.443 41.7776 18.7626 41.459 18.9989 41.0227C19.1541 40.736 19.2452 40.4488 19.272 40.1611C19.2988 39.8734 19.2626 39.5979 19.1634 39.3346C19.0642 39.0713 18.9022 38.8345 18.6776 38.6242L19.2749 37.521C19.665 37.8128 19.9632 38.1738 20.1696 38.6039C20.3745 39.0292 20.4679 39.4969 20.4496 40.0069C20.43 40.5121 20.2767 41.0295 19.9898 41.5593Z" fill="white"/>
<path d="M21.0384 33.9557L19.7958 33.0253L19.9515 32.8232L19.2508 27.7745L20.198 26.5448L20.9244 31.9086L20.8595 31.9928L21.0384 33.9557ZM22.6831 36.6986L14.0585 30.0554L14.824 29.0616L23.4486 35.7048L22.6831 36.6986ZM25.849 32.5885L20.7022 32.65L20.5565 31.4105L26.8221 31.3251L25.849 32.5885Z" fill="white"/>
<path d="M25.0122 17.9326L33.1736 23.207L33.2745 23.129L30.2274 13.9017L31.321 13.0565L34.8157 24.1146L33.739 24.9468L23.9187 18.7777L25.0122 17.9326Z" fill="white"/>
<path d="M39.7893 20.7664L35.6975 13.7007L36.7831 13.0721L40.8749 20.1377L39.7893 20.7664ZM35.5676 12.2035C35.356 12.326 35.1318 12.3596 34.895 12.3043C34.6613 12.2472 34.4858 12.1174 34.3686 11.915C34.2514 11.7126 34.2262 11.4958 34.293 11.2647C34.3628 11.0317 34.5036 10.854 34.7152 10.7315C34.9268 10.6089 35.1494 10.5762 35.3832 10.6333C35.62 10.6887 35.797 10.8175 35.9142 11.0199C36.0314 11.2223 36.0551 11.44 35.9852 11.6729C35.9184 11.9041 35.7792 12.0809 35.5676 12.2035Z" fill="white"/>
<path d="M46.3637 17.622C45.6417 17.9346 44.95 18.0449 44.2884 17.9529C43.6287 17.8563 43.0327 17.5815 42.5005 17.1284C41.9702 16.6706 41.5389 16.058 41.2065 15.2906C40.8742 14.5231 40.7211 13.7862 40.7473 13.0797C40.7753 12.3686 40.9702 11.7396 41.3321 11.1929C41.6957 10.6415 42.2158 10.2194 42.8922 9.92647C43.2824 9.75748 43.6959 9.65564 44.1327 9.62096C44.5695 9.58627 45.0074 9.64767 45.4463 9.80516C45.8839 9.95939 46.2988 10.2354 46.6912 10.6332C47.0836 11.0309 47.4311 11.5794 47.7339 12.2786L47.9451 12.7664L42.1697 15.2674L41.7387 14.2723L46.3435 12.2782C46.1604 11.8555 45.9125 11.5149 45.5998 11.2564C45.2903 10.9965 44.9395 10.8375 44.5475 10.7794C44.1588 10.72 43.7562 10.7803 43.34 10.9606C42.8815 11.1592 42.534 11.4448 42.2976 11.8175C42.0631 12.1855 41.9346 12.5887 41.912 13.0271C41.8895 13.4656 41.9676 13.8913 42.1465 14.3043L42.4338 14.9677C42.6788 15.5335 42.9841 15.9709 43.3496 16.2799C43.7169 16.5843 44.1206 16.7628 44.5605 16.8156C44.999 16.8651 45.4508 16.7892 45.9158 16.5878C46.2183 16.4569 46.4731 16.2963 46.6804 16.1061C46.8895 15.9113 47.0462 15.689 47.1504 15.4392C47.2533 15.1861 47.2971 14.9084 47.282 14.606L48.5294 14.4365C48.5757 14.8645 48.5226 15.2814 48.3701 15.6872C48.2162 16.0899 47.9705 16.4589 47.633 16.7942C47.2941 17.1264 46.871 17.4023 46.3637 17.622Z" fill="white"/>
<path d="M53.1608 14.9839L49.0323 7.5133L50.3219 7.23965L53.3459 12.9884L53.4291 12.9707L53.837 6.49371L55.1474 6.21564L58.1254 11.9524L58.2086 11.9347L58.6417 5.47413L59.9313 5.20047L59.1926 13.7039L57.9862 13.9599L54.937 8.1948L54.8122 8.22129L54.3671 14.7279L53.1608 14.9839Z" fill="white"/>
</svg>
