<svg width="100" height="100" viewBox="0 0 100 100" fill="none" xmlns="http://www.w3.org/2000/svg">
<path d="M20 51C20 44.3726 25.3726 39 32 39H45V64H32C25.3726 64 20 58.6274 20 52V51Z" fill="#B941D7"/>
<rect x="45" y="39" width="25" height="25" rx="12.5" fill="#1F99DF"/>
<path d="M20 76C20 69.3726 25.3726 64 32 64H45V77C45 83.6274 39.6274 89 33 89H32C25.3726 89 20 83.6274 20 77V76Z" fill="#57E58E"/>
<path d="M45 14H57.5C64.4036 14 70 19.5964 70 26.5C70 33.4036 64.4036 39 57.5 39H45V14Z" fill="#FF7D7D"/>
<path d="M20 26C20 19.3726 25.3726 14 32 14H45V39H32.5C25.5964 39 20 33.4036 20 26.5V26Z" fill="#E6573E"/>
</svg>
